<svg width="625" height="625" viewBox="0 0 625 625" fill="none" xmlns="http://www.w3.org/2000/svg">
<path d="M313 142V481" stroke="#353839" stroke-width="5" stroke-linecap="round" stroke-linejoin="round"/>
<path d="M389.583 204H273.958C259.648 204 245.923 209.663 235.804 219.743C225.685 229.823 220 243.495 220 257.75C220 272.005 225.685 285.677 235.804 295.757C245.923 305.837 259.648 311.5 273.958 311.5H351.042C365.352 311.5 379.077 317.163 389.196 327.243C399.315 337.323 405 350.995 405 365.25C405 379.505 399.315 393.177 389.196 403.257C379.077 413.337 365.352 419 351.042 419H220" stroke="#353839" stroke-width="5" stroke-linecap="round" stroke-linejoin="round"/>
<path d="M541.75 412.667V212.333C541.741 203.551 539.388 194.925 534.927 187.321C530.466 179.717 524.053 173.403 516.333 169.011L338.417 68.8446C330.689 64.4489 321.923 62.1347 313 62.1347C304.077 62.1347 295.311 64.4489 287.583 68.8446L109.667 169.011C101.947 173.403 95.5345 179.717 91.0734 187.321C86.6123 194.925 84.2592 203.551 84.25 212.333V412.667C84.2592 421.449 86.6123 430.075 91.0734 437.679C95.5345 445.283 101.947 451.597 109.667 455.989L287.583 556.155C295.311 560.551 304.077 562.865 313 562.865C321.923 562.865 330.689 560.551 338.417 556.155L516.333 455.989C524.053 451.597 530.466 445.283 534.927 437.679C539.388 430.075 541.741 421.449 541.75 412.667Z" stroke="#353839" stroke-width="5" stroke-linecap="round" stroke-linejoin="round"/>
</svg>
